<?xml version="1.0" standalone="no"?>
<!DOCTYPE svg PUBLIC "-//W3C//DTD SVG 20010904//EN"
 "http://www.w3.org/TR/2001/REC-SVG-20010904/DTD/svg10.dtd">
<svg version="1.0" xmlns="http://www.w3.org/2000/svg"
 width="384.000000pt" height="384.000000pt" viewBox="0 0 384.000000 384.000000"
 preserveAspectRatio="xMidYMid meet">
<metadata>
Created by potrace 1.11, written by Peter Selinger 2001-2013
</metadata>
<g transform="translate(0.000000,384.000000) scale(0.100000,-0.100000)"
fill="#000000" stroke="none">
<path d="M20 3546 c10 -19 30 -53 44 -75 15 -22 26 -45 26 -51 0 -5 5 -10 11
-10 5 0 8 -4 5 -9 -3 -5 1 -14 9 -21 8 -7 15 -19 15 -26 0 -8 5 -14 10 -14 6
0 10 -6 10 -14 0 -8 7 -22 16 -30 8 -9 13 -16 10 -16 -3 0 17 -36 44 -81 28
-44 50 -82 50 -85 0 -2 16 -28 35 -58 19 -30 35 -57 35 -60 0 -3 44 -81 98
-173 55 -93 142 -242 194 -333 53 -91 105 -181 117 -200 11 -19 26 -46 33 -60
7 -14 15 -27 18 -30 4 -4 18 -28 64 -115 6 -11 13 -22 16 -25 6 -5 115 -193
163 -280 17 -30 34 -56 39 -58 4 -2 8 -9 8 -15 0 -6 40 -78 89 -161 49 -83 98
-168 110 -188 11 -21 31 -55 42 -75 12 -21 30 -50 40 -65 11 -14 19 -29 19
-32 0 -5 57 -105 100 -176 12 -19 171 -293 199 -343 11 -20 29 -52 40 -70 10
-17 53 -93 96 -167 98 -170 95 -166 110 -138 6 13 21 39 33 58 11 19 27 46 35
60 7 14 57 100 110 191 53 91 97 171 97 177 0 6 4 12 8 14 9 4 302 507 302
519 0 5 5 9 10 9 6 0 10 5 10 11 0 7 18 40 40 75 22 35 40 66 40 69 0 3 11 22
23 43 13 20 35 57 49 82 14 25 48 83 75 130 27 47 56 96 64 110 8 14 16 27 19
30 5 5 31 52 58 105 9 17 22 36 29 43 7 7 16 24 19 38 3 13 10 24 15 24 5 0 8
3 7 8 -1 4 13 32 32 62 19 30 34 58 32 63 -1 4 2 7 8 7 5 0 10 7 10 15 0 8 5
15 10 15 6 0 10 5 10 11 0 8 93 173 155 274 7 11 12 22 11 25 0 3 14 26 32 52
18 26 32 49 32 52 0 3 25 46 55 96 30 50 55 92 55 95 0 8 75 130 82 133 5 2 8
8 8 13 0 6 25 54 56 107 31 53 81 139 110 189 30 51 54 97 54 103 0 5 4 10 9
10 5 0 14 14 20 30 5 17 15 30 20 30 6 0 11 7 11 16 0 9 8 28 18 42 10 15 22
33 26 40 6 9 -144 12 -733 12 l-741 0 -59 -102 c-33 -57 -63 -108 -68 -113 -4
-6 -9 -17 -11 -25 -2 -8 -8 -16 -13 -18 -5 -2 -9 -8 -9 -13 0 -5 -19 -42 -43
-82 -24 -39 -86 -145 -138 -234 -51 -90 -96 -163 -99 -163 -8 0 -70 106 -70
119 0 6 -4 11 -10 11 -5 0 -10 4 -10 9 0 5 -17 38 -38 72 -21 35 -53 91 -71
124 -18 32 -41 71 -52 86 -10 15 -19 30 -19 34 0 3 -15 30 -34 60 -19 29 -33
55 -30 57 2 3 -5 13 -16 23 -11 10 -20 22 -20 28 0 5 -16 36 -36 68 l-35 59
-740 0 -739 0 20 -34z"/>
</g>
</svg>
